<mxfile host="app.diagrams.net" modified="2023-11-01T18:34:41.634Z" agent="Mozilla/5.0 (X11; Linux x86_64) AppleWebKit/537.36 (KHTML, like Gecko) Chrome/118.0.0.0 Safari/537.36" etag="9h5rNwBwU0T_y19NrwhE" version="22.0.8" type="google">
  <diagram name="Page-1" id="UmHMrGjMWMmVtYnbylZg">
    <mxGraphModel grid="0" page="1" gridSize="10" guides="1" tooltips="1" connect="1" arrows="1" fold="1" pageScale="1" pageWidth="850" pageHeight="1100" math="0" shadow="0">
      <root>
        <mxCell id="0" />
        <mxCell id="1" parent="0" />
        <mxCell id="3TZ9QMVxS8KCy3Ta8Vsz-9" value="WeatherData" style="swimlane;fontStyle=1;align=center;verticalAlign=top;childLayout=stackLayout;horizontal=1;startSize=26;horizontalStack=0;resizeParent=1;resizeParentMax=0;resizeLast=0;collapsible=1;marginBottom=0;whiteSpace=wrap;html=1;" vertex="1" parent="1">
          <mxGeometry x="499" y="92" width="238" height="172" as="geometry" />
        </mxCell>
        <mxCell id="3TZ9QMVxS8KCy3Ta8Vsz-10" value="- observers: List&amp;lt;Observer&amp;gt;&lt;br&gt;- temperature: float&lt;br&gt;- humidity: float&lt;br&gt;- pressure: float" style="text;strokeColor=none;fillColor=none;align=left;verticalAlign=top;spacingLeft=4;spacingRight=4;overflow=hidden;rotatable=0;points=[[0,0.5],[1,0.5]];portConstraint=eastwest;whiteSpace=wrap;html=1;" vertex="1" parent="3TZ9QMVxS8KCy3Ta8Vsz-9">
          <mxGeometry y="26" width="238" height="67" as="geometry" />
        </mxCell>
        <mxCell id="3TZ9QMVxS8KCy3Ta8Vsz-11" value="" style="line;strokeWidth=1;fillColor=none;align=left;verticalAlign=middle;spacingTop=-1;spacingLeft=3;spacingRight=3;rotatable=0;labelPosition=right;points=[];portConstraint=eastwest;strokeColor=inherit;" vertex="1" parent="3TZ9QMVxS8KCy3Ta8Vsz-9">
          <mxGeometry y="93" width="238" height="8" as="geometry" />
        </mxCell>
        <mxCell id="3TZ9QMVxS8KCy3Ta8Vsz-12" value="+ registerObserver(Observer): void&lt;br&gt;+ removeObserver(Observer): void&lt;br&gt;+ notifyObservers(void): void&lt;br&gt;+ setMeasurements(float, float, float): void" style="text;strokeColor=none;fillColor=none;align=left;verticalAlign=top;spacingLeft=4;spacingRight=4;overflow=hidden;rotatable=0;points=[[0,0.5],[1,0.5]];portConstraint=eastwest;whiteSpace=wrap;html=1;" vertex="1" parent="3TZ9QMVxS8KCy3Ta8Vsz-9">
          <mxGeometry y="101" width="238" height="71" as="geometry" />
        </mxCell>
        <mxCell id="3TZ9QMVxS8KCy3Ta8Vsz-13" value="CurrentConditionsDisplay" style="swimlane;fontStyle=1;align=center;verticalAlign=top;childLayout=stackLayout;horizontal=1;startSize=26;horizontalStack=0;resizeParent=1;resizeParentMax=0;resizeLast=0;collapsible=1;marginBottom=0;whiteSpace=wrap;html=1;" vertex="1" parent="1">
          <mxGeometry x="83" y="242" width="183" height="100" as="geometry" />
        </mxCell>
        <mxCell id="3TZ9QMVxS8KCy3Ta8Vsz-14" value="- temperature: float&lt;br&gt;- humidity: float" style="text;strokeColor=none;fillColor=none;align=left;verticalAlign=top;spacingLeft=4;spacingRight=4;overflow=hidden;rotatable=0;points=[[0,0.5],[1,0.5]];portConstraint=eastwest;whiteSpace=wrap;html=1;" vertex="1" parent="3TZ9QMVxS8KCy3Ta8Vsz-13">
          <mxGeometry y="26" width="183" height="40" as="geometry" />
        </mxCell>
        <mxCell id="3TZ9QMVxS8KCy3Ta8Vsz-15" value="" style="line;strokeWidth=1;fillColor=none;align=left;verticalAlign=middle;spacingTop=-1;spacingLeft=3;spacingRight=3;rotatable=0;labelPosition=right;points=[];portConstraint=eastwest;strokeColor=inherit;" vertex="1" parent="3TZ9QMVxS8KCy3Ta8Vsz-13">
          <mxGeometry y="66" width="183" height="8" as="geometry" />
        </mxCell>
        <mxCell id="3TZ9QMVxS8KCy3Ta8Vsz-16" value="+ update(float, float, float): void" style="text;strokeColor=none;fillColor=none;align=left;verticalAlign=top;spacingLeft=4;spacingRight=4;overflow=hidden;rotatable=0;points=[[0,0.5],[1,0.5]];portConstraint=eastwest;whiteSpace=wrap;html=1;" vertex="1" parent="3TZ9QMVxS8KCy3Ta8Vsz-13">
          <mxGeometry y="74" width="183" height="26" as="geometry" />
        </mxCell>
        <mxCell id="3TZ9QMVxS8KCy3Ta8Vsz-17" value="StatisticsDisplay" style="swimlane;fontStyle=1;align=center;verticalAlign=top;childLayout=stackLayout;horizontal=1;startSize=26;horizontalStack=0;resizeParent=1;resizeParentMax=0;resizeLast=0;collapsible=1;marginBottom=0;whiteSpace=wrap;html=1;" vertex="1" parent="1">
          <mxGeometry x="279" y="242" width="182" height="114" as="geometry" />
        </mxCell>
        <mxCell id="3TZ9QMVxS8KCy3Ta8Vsz-18" value="- maxTemp: float&lt;br style=&quot;--tw-translate-x: 0; --tw-translate-y: 0; --tw-rotate: 0; --tw-skew-x: 0; --tw-skew-y: 0; --tw-scale-x: 1; --tw-scale-y: 1; --tw-pan-x: ; --tw-pan-y: ; --tw-pinch-zoom: ; --tw-scroll-snap-strictness: proximity; --tw-ordinal: ; --tw-slashed-zero: ; --tw-numeric-figure: ; --tw-numeric-spacing: ; --tw-numeric-fraction: ; --tw-ring-inset: ; --tw-ring-offset-width: 0px; --tw-ring-offset-color: #fff; --tw-ring-color: rgb(59 130 246 / .5); --tw-ring-offset-shadow: 0 0 #0000; --tw-ring-shadow: 0 0 #0000; --tw-shadow: 0 0 #0000; --tw-shadow-colored: 0 0 #0000; --tw-blur: ; --tw-brightness: ; --tw-contrast: ; --tw-grayscale: ; --tw-hue-rotate: ; --tw-invert: ; --tw-saturate: ; --tw-sepia: ; --tw-drop-shadow: ; --tw-backdrop-blur: ; --tw-backdrop-brightness: ; --tw-backdrop-contrast: ; --tw-backdrop-grayscale: ; --tw-backdrop-hue-rotate: ; --tw-backdrop-invert: ; --tw-backdrop-opacity: ; --tw-backdrop-saturate: ; --tw-backdrop-sepia: ; border-color: var(--border-color);&quot;&gt;- minTemp: float&lt;br&gt;- numReadings: int" style="text;strokeColor=none;fillColor=none;align=left;verticalAlign=top;spacingLeft=4;spacingRight=4;overflow=hidden;rotatable=0;points=[[0,0.5],[1,0.5]];portConstraint=eastwest;whiteSpace=wrap;html=1;" vertex="1" parent="3TZ9QMVxS8KCy3Ta8Vsz-17">
          <mxGeometry y="26" width="182" height="54" as="geometry" />
        </mxCell>
        <mxCell id="3TZ9QMVxS8KCy3Ta8Vsz-19" value="" style="line;strokeWidth=1;fillColor=none;align=left;verticalAlign=middle;spacingTop=-1;spacingLeft=3;spacingRight=3;rotatable=0;labelPosition=right;points=[];portConstraint=eastwest;strokeColor=inherit;" vertex="1" parent="3TZ9QMVxS8KCy3Ta8Vsz-17">
          <mxGeometry y="80" width="182" height="8" as="geometry" />
        </mxCell>
        <mxCell id="3TZ9QMVxS8KCy3Ta8Vsz-20" value="+ update(float, float, float): void" style="text;strokeColor=none;fillColor=none;align=left;verticalAlign=top;spacingLeft=4;spacingRight=4;overflow=hidden;rotatable=0;points=[[0,0.5],[1,0.5]];portConstraint=eastwest;whiteSpace=wrap;html=1;" vertex="1" parent="3TZ9QMVxS8KCy3Ta8Vsz-17">
          <mxGeometry y="88" width="182" height="26" as="geometry" />
        </mxCell>
        <mxCell id="3TZ9QMVxS8KCy3Ta8Vsz-27" value="&lt;p style=&quot;margin:0px;margin-top:4px;text-align:center;&quot;&gt;&lt;i&gt;&amp;lt;&amp;lt;Interface&amp;gt;&amp;gt;&lt;/i&gt;&lt;br&gt;&lt;b&gt;Observer&lt;/b&gt;&lt;/p&gt;&lt;hr size=&quot;1&quot;&gt;&lt;p style=&quot;margin:0px;margin-left:4px;&quot;&gt;&lt;/p&gt;&lt;p style=&quot;margin:0px;margin-left:4px;&quot;&gt;+ update(float, float, float): void&lt;br&gt;&lt;/p&gt;" style="verticalAlign=top;align=left;overflow=fill;fontSize=12;fontFamily=Helvetica;html=1;whiteSpace=wrap;" vertex="1" parent="1">
          <mxGeometry x="183" y="119" width="188" height="64" as="geometry" />
        </mxCell>
        <mxCell id="3TZ9QMVxS8KCy3Ta8Vsz-29" value="" style="endArrow=block;dashed=1;endFill=0;endSize=12;html=1;rounded=0;exitX=0.5;exitY=0;exitDx=0;exitDy=0;entryX=0.25;entryY=1;entryDx=0;entryDy=0;" edge="1" parent="1" source="3TZ9QMVxS8KCy3Ta8Vsz-13" target="3TZ9QMVxS8KCy3Ta8Vsz-27">
          <mxGeometry width="160" relative="1" as="geometry">
            <mxPoint x="169" y="219" as="sourcePoint" />
            <mxPoint x="329" y="219" as="targetPoint" />
          </mxGeometry>
        </mxCell>
        <mxCell id="3TZ9QMVxS8KCy3Ta8Vsz-30" value="" style="endArrow=block;dashed=1;endFill=0;endSize=12;html=1;rounded=0;exitX=0.5;exitY=0;exitDx=0;exitDy=0;entryX=0.75;entryY=1;entryDx=0;entryDy=0;" edge="1" parent="1" source="3TZ9QMVxS8KCy3Ta8Vsz-17" target="3TZ9QMVxS8KCy3Ta8Vsz-27">
          <mxGeometry width="160" relative="1" as="geometry">
            <mxPoint x="399" y="219" as="sourcePoint" />
            <mxPoint x="464" y="160" as="targetPoint" />
          </mxGeometry>
        </mxCell>
        <mxCell id="3TZ9QMVxS8KCy3Ta8Vsz-31" value="1" style="endArrow=open;html=1;endSize=12;startArrow=diamondThin;startSize=14;startFill=0;edgeStyle=orthogonalEdgeStyle;align=left;verticalAlign=bottom;rounded=0;entryX=1;entryY=0.5;entryDx=0;entryDy=0;" edge="1" parent="1" source="3TZ9QMVxS8KCy3Ta8Vsz-10" target="3TZ9QMVxS8KCy3Ta8Vsz-27">
          <mxGeometry x="-0.74" y="-4" relative="1" as="geometry">
            <mxPoint x="539" y="46" as="sourcePoint" />
            <mxPoint x="699" y="46" as="targetPoint" />
            <mxPoint as="offset" />
          </mxGeometry>
        </mxCell>
        <mxCell id="3TZ9QMVxS8KCy3Ta8Vsz-32" value="" style="endArrow=open;endFill=1;endSize=12;html=1;rounded=0;exitX=0.5;exitY=0;exitDx=0;exitDy=0;exitPerimeter=0;" edge="1" parent="1" source="3TZ9QMVxS8KCy3Ta8Vsz-34" target="3TZ9QMVxS8KCy3Ta8Vsz-12">
          <mxGeometry width="160" relative="1" as="geometry">
            <mxPoint x="618" y="325" as="sourcePoint" />
            <mxPoint x="880" y="294" as="targetPoint" />
          </mxGeometry>
        </mxCell>
        <mxCell id="3TZ9QMVxS8KCy3Ta8Vsz-33" value="Client" style="html=1;whiteSpace=wrap;" vertex="1" parent="1">
          <mxGeometry x="571.5" y="438" width="93" height="41" as="geometry" />
        </mxCell>
        <mxCell id="3TZ9QMVxS8KCy3Ta8Vsz-34" value="weatherData = new &lt;b&gt;WeatherData&lt;/b&gt;()&lt;br&gt;currDisplay = new &lt;b&gt;CurrentConditionsDisplay&lt;/b&gt;()&lt;br&gt;statsDisplay = new &lt;b&gt;StatisticsDisplay&lt;/b&gt;()&lt;br&gt;weatherData.setMeasurements(80, 65, 30.4)&lt;br&gt;..." style="shape=note;size=20;whiteSpace=wrap;html=1;" vertex="1" parent="1">
          <mxGeometry x="473.25" y="310" width="289.5" height="94" as="geometry" />
        </mxCell>
        <mxCell id="3TZ9QMVxS8KCy3Ta8Vsz-36" value="" style="endArrow=none;html=1;rounded=0;entryX=0.5;entryY=1;entryDx=0;entryDy=0;entryPerimeter=0;" edge="1" parent="1" source="3TZ9QMVxS8KCy3Ta8Vsz-33" target="3TZ9QMVxS8KCy3Ta8Vsz-34">
          <mxGeometry width="50" height="50" relative="1" as="geometry">
            <mxPoint x="461" y="309" as="sourcePoint" />
            <mxPoint x="511" y="259" as="targetPoint" />
          </mxGeometry>
        </mxCell>
      </root>
    </mxGraphModel>
  </diagram>
</mxfile>
